<svg width="10" height="10" viewBox="0 0 10 10" fill="none" xmlns="http://www.w3.org/2000/svg">
<g clip-path="url(#clip0_2023_1145)">
<path d="M5.88457 9.75727L9.78038 5.59126C10.0732 5.27781 10.0732 4.72316 9.78038 4.4086L5.88457 0.242594C5.58036 -0.0819725 5.08886 -0.0808607 4.78671 0.245928C4.48457 0.572717 4.48457 1.09958 4.78878 1.42526L7.35184 4.1674L0.776056 4.1674C0.346638 4.1674 0 4.54087 0 5.00104C0 5.46122 0.346638 5.83469 0.776056 5.83469L7.35184 5.83469L4.78878 8.57571C4.63668 8.73911 4.56114 8.95252 4.56114 9.16705C4.56114 9.37935 4.63668 9.59276 4.78671 9.75505C5.08886 10.0807 5.58036 10.0818 5.88457 9.75727" fill="white"/>
</g>
<defs>
<clipPath id="clip0_2023_1145">
<rect width="10" height="10" fill="white"/>
</clipPath>
</defs>
</svg>
